<svg width="28" height="28" viewBox="0 0 28 28" fill="none" xmlns="http://www.w3.org/2000/svg">
<path d="M26.238 22.836L24.6783 9.71104C24.6277 9.2834 24.4212 8.88943 24.0984 8.6045C23.7755 8.31957 23.3589 8.16368 22.9283 8.16666H19.25C19.25 6.77428 18.6969 5.43892 17.7123 4.45435C16.7278 3.46979 15.3924 2.91666 14 2.91666C12.6076 2.91666 11.2723 3.46979 10.2877 4.45435C9.30314 5.43892 8.75002 6.77428 8.75002 8.16666H5.06736C4.63675 8.16368 4.22016 8.31957 3.8973 8.6045C3.57443 8.88943 3.36795 9.2834 3.31736 9.71104L1.75767 22.836C1.72909 23.081 1.75261 23.3292 1.82669 23.5645C1.90076 23.7997 2.02373 24.0167 2.18752 24.201C2.35249 24.3862 2.55464 24.5345 2.7808 24.6363C3.00695 24.738 3.25202 24.791 3.50002 24.7917H24.4913C24.7407 24.7922 24.9875 24.7399 25.2152 24.6381C25.443 24.5363 25.6466 24.3873 25.8125 24.201C25.9755 24.0163 26.0977 23.7992 26.171 23.564C26.2443 23.3287 26.2672 23.0807 26.238 22.836ZM14 4.66666C14.9283 4.66666 15.8185 5.03541 16.4749 5.69179C17.1313 6.34817 17.5 7.23841 17.5 8.16666H10.5C10.5 7.23841 10.8688 6.34817 11.5251 5.69179C12.1815 5.03541 13.0718 4.66666 14 4.66666ZM3.50002 23.0417L5.06736 9.91666H8.75002V12.5417C8.75002 12.7737 8.8422 12.9963 9.0063 13.1604C9.17039 13.3245 9.39295 13.4167 9.62502 13.4167C9.85708 13.4167 10.0796 13.3245 10.2437 13.1604C10.4078 12.9963 10.5 12.7737 10.5 12.5417V9.91666H17.5V12.5417C17.5 12.7737 17.5922 12.9963 17.7563 13.1604C17.9204 13.3245 18.143 13.4167 18.375 13.4167C18.6071 13.4167 18.8296 13.3245 18.9937 13.1604C19.1578 12.9963 19.25 12.7737 19.25 12.5417V9.91666H22.9414L24.4913 23.0417H3.50002Z" fill="#133153"/>
</svg>
